<svg id="tailwind-to-css-logo" data-name="tailwind-to-css-logo" xmlns="http://www.w3.org/2000/svg" viewBox="0 0 24 24"><defs><style>.cls-1{fill:#264de4;}.cls-2{fill:#2965f1;}.cls-3{fill:#fff;}.cls-4{fill:#ebebeb;}</style></defs><polygon id="polygon2989" class="cls-1" points="22.58 0 20.66 21.6 11.98 24 3.34 21.6 1.42 0 22.58 0"/><polygon id="polygon2991" class="cls-2" points="19.01 20.22 20.65 1.76 12 1.76 12 22.16 19.01 20.22"/><path class="cls-3" d="M19.42,7.94a3.8,3.8,0,0,1-2.33,2.79,4.44,4.44,0,0,1-4-.67c-.28-.21-.64-.64-1.09-1V6.46c2.66,0,3.35,1.89,4.26,2.36A2.35,2.35,0,0,0,19.42,7.94Z"/><path class="cls-4" d="M12,6.46V9a2.69,2.69,0,0,0-1.7-.8,2.56,2.56,0,0,0-2,1.2,3.49,3.49,0,0,1,3.57-3Z"/><path class="cls-4" d="M12,12.81v2.57a4.39,4.39,0,0,1-2.61-.87c-.58-.44-1.53-1.84-2.79-1.84a2.54,2.54,0,0,0-2,1.2,3.5,3.5,0,0,1,3.57-3A4.63,4.63,0,0,1,12,12.81Z"/><path class="cls-3" d="M15.73,12.39a3.81,3.81,0,0,1-2.34,2.78,4.74,4.74,0,0,1-1.39.21V12.81a2.46,2.46,0,0,0,.56.45A2.36,2.36,0,0,0,15.73,12.39Z"/></svg>